<?xml version="1.0" standalone="no"?><!DOCTYPE svg PUBLIC "-//W3C//DTD SVG 1.1//EN" "http://www.w3.org/Graphics/SVG/1.1/DTD/svg11.dtd"><svg t="1617872670775" class="icon" viewBox="0 0 1024 1024" version="1.1" xmlns="http://www.w3.org/2000/svg" p-id="2287" xmlns:xlink="http://www.w3.org/1999/xlink" width="200" height="200"><defs><style type="text/css"></style></defs><path d="M285.0816 264.448s-231.4752 146.6368-20.7872 475.3408c140.3904 228.608 380.5696 187.2896 467.6096 133.5296s252.7744-248.5248 30.0032-519.0656c-237.4656-288.3584-476.8256-89.8048-476.8256-89.8048z" fill="#f8ec7a" p-id="2288" data-spm-anchor-id="a313x.7781069.0.i6" class="selected"></path><path d="M589.824 790.9376c-275.0464-84.48-343.552-352.9728-361.7792-469.9648-51.4048 69.888-100.0448 206.2848 36.1984 418.816 140.3904 228.608 380.5696 187.3408 467.6096 133.5296 39.8848-24.6272 96.1536-78.7968 124.16-156.2624-92.2624 62.464-202.1888 91.7504-266.1888 73.8816z" fill="#f5e22a" p-id="2289"></path><path d="M589.824 790.9376c-275.0464-84.48-343.552-352.9728-361.7792-469.9648-51.4048 69.888-100.0448 206.2848 36.1984 418.816 140.3904 228.608 380.5696 187.3408 467.6096 133.5296 39.8848-24.6272 96.1536-78.7968 124.16-156.2624-92.2624 62.464-202.1888 91.7504-266.1888 73.8816z" fill="#f5e22a" p-id="2290" data-spm-anchor-id="a313x.7781069.0.i7" class=""></path><path d="M564.6848 930.816c-27.7504 0-56.4736-2.9696-85.1968-9.8304-93.44-22.2208-172.3904-82.0736-228.3008-173.1584-77.2608-120.5248-105.5232-231.5264-83.7632-329.6256 23.7568-107.264 99.2256-160 108.5952-166.1952 9.9328-7.9872 103.68-80.384 231.9872-68.1984 96.0512 9.1136 185.4976 63.1808 265.7792 160.7168 90.88 110.3872 128.2048 219.4944 110.7968 324.1984-17.5104 105.5744-88.832 183.2448-144.5888 217.6512-40.3968 24.9856-104.5504 44.4416-175.3088 44.4416z m-271.36-653.4144c-0.9728 0.6144-55.1424 36.1472-84.0192 108.7488-38.4512 96.6144-15.0016 216.064 67.8912 345.3952 52.4288 85.4016 122.8288 139.008 209.408 159.5904 92.928 22.1184 188.1088-0.512 237.2096-30.8224 50.2784-31.0272 114.6368-101.1712 130.4576-196.5568 15.872-95.5904-19.2-196.4032-104.2432-299.6736-94.4128-114.688-199.4752-164.4544-312.0128-147.8656-84.5824 12.4416-142.592 59.5968-143.1552 60.0576-0.4608 0.4096-1.024 0.8192-1.536 1.1264z m-8.2432-12.9536z" fill="#2c2c2c" p-id="2291" data-spm-anchor-id="a313x.7781069.0.i18" class=""></path><path d="M231.5776 353.9456l-94.208-2.6624L207.872 457.5232M215.808 523.9808l-80.7936 108.544 111.616 20.0704M334.7968 742.2464L288.8192 839.68l111.2064-26.88M438.9376 855.3472l65.792 94.6688 53.0432-72.96M734.1056 813.9264l101.1712 12.4928-43.6224-80.0256" fill="#f5e22a" p-id="2292" data-spm-anchor-id="a313x.7781069.0.i8" class=""></path><path d="M779.8272 430.3872l118.3232 26.7264-66.9696 67.5328M837.5808 568.3712l58.2144 106.7008-95.7952-16.9984M658.688 309.248l110.4384-13.824-9.8304 97.3824M505.9584 236.8l156.7232-44.3392-36.864 78.08M348.3136 253.5424l21.4016-110.7456 71.7824 85.4528" fill="#f5e22a" p-id="2293" data-spm-anchor-id="a313x.7781069.0.i13" class=""></path><path d="M290.9184 306.8928s-98.8672-94.72-61.0816-197.12c15.0528-11.3664 51.7632-13.2608 72.0896 11.008-10.496 35.584-33.0752 95.1296 24.7808 166.6048-24.0128 20.9408-35.7888 19.5072-35.7888 19.5072z" fill="#86a63c" p-id="2294" data-spm-anchor-id="a313x.7781069.0.i14" class=""></path><path d="M291.5328 322.2528c-0.9728 0-1.792-0.0512-2.4576-0.1536-3.2768-0.4096-6.4-1.8432-8.7552-4.1472-4.352-4.1472-105.6768-102.9632-64.9216-213.504 1.024-2.7648 2.816-5.1712 5.1712-6.9632 20.48-15.4624 66.9184-17.8688 93.1328 13.4656 3.2768 3.9424 4.4032 9.2672 2.9696 14.1824l-1.8432 6.1952c-10.8544 35.9424-25.7024 85.1456 23.8592 146.3808 5.1712 6.4 4.4032 15.8208-1.8432 21.248-23.1936 20.1728-38.2464 23.296-45.312 23.296z m-49.0496-202.1888c-24.5248 76.4928 34.56 149.1456 53.4528 169.8816 2.304-1.024 5.4272-2.6624 9.3696-5.376-46.9504-66.6624-31.5392-123.5456-20.7872-159.3344-13.568-10.3424-32.5632-9.2672-42.0352-5.1712zM207.9232 472.8832c-4.9664 0-9.8304-2.4064-12.8-6.8608L124.5696 359.7824c-3.072-4.6592-3.4304-10.6496-0.8192-15.616 2.6112-4.9664 7.68-8.1408 13.2608-8.2432l132.1472-2.8672h0.3584c8.3456 0 15.1552 6.656 15.36 15.0528a15.29856 15.29856 0 0 1-15.0016 15.6672l-104.2432 2.2528L220.672 449.024a15.36 15.36 0 0 1-12.7488 23.8592z" fill="#2c2c2c" p-id="2295" data-spm-anchor-id="a313x.7781069.0.i17" class=""></path><path d="M348.3648 268.9024c-0.9728 0-1.9456-0.1024-2.9184-0.3072a15.36 15.36 0 0 1-12.1856-17.9712l21.4016-110.7456a15.2832 15.2832 0 0 1 11.2128-11.9296c5.7344-1.4848 11.8272 0.4608 15.616 5.0176l71.7824 85.504a15.36 15.36 0 0 1-1.8944 21.6576 15.36 15.36 0 0 1-21.6576-1.8944l-51.0464-60.7744-15.3088 79.104a15.23712 15.23712 0 0 1-15.0016 12.3392zM246.6304 667.9552c-0.9216 0-1.8432-0.1024-2.7136-0.256l-111.616-20.0704a15.29344 15.29344 0 0 1-11.5712-9.472c-1.9456-4.9664-1.2288-10.5472 1.9456-14.7968l80.7936-108.544c5.0688-6.8096 14.6944-8.192 21.504-3.1744 6.8096 5.0688 8.192 14.6944 3.1744 21.504l-65.9968 88.6272 87.1936 15.6672a15.3088 15.3088 0 0 1 12.3904 17.8176 15.34976 15.34976 0 0 1-15.104 12.6976zM288.8192 855.04c-4.5568 0-8.96-2.048-11.9296-5.6832a15.36 15.36 0 0 1-1.9968-16.2304l45.9776-97.4336c3.6352-7.68 12.7488-10.9568 20.4288-7.3216 7.68 3.6352 10.9568 12.8 7.3216 20.4288l-32.256 68.4032 79.9744-19.3536a15.35488 15.35488 0 1 1 7.2192 29.8496l-111.1552 26.88c-1.1264 0.3072-2.3552 0.4608-3.584 0.4608zM504.7296 965.376h-0.1536c-4.9664-0.0512-9.6256-2.5088-12.4416-6.6048l-65.792-94.6688c-4.864-6.9632-3.1232-16.5376 3.84-21.4016 6.9632-4.8128 16.5376-3.1232 21.4016 3.84l53.4528 76.9536 40.3456-55.4496a15.32416 15.32416 0 0 1 21.4528-3.3792c6.8608 4.9664 8.3968 14.592 3.3792 21.4528l-53.0432 72.96c-2.9184 3.9424-7.5264 6.2976-12.4416 6.2976zM835.2768 841.7792c-0.6144 0-1.28-0.0512-1.8944-0.1024l-101.1712-12.4928c-8.3968-1.024-14.3872-8.704-13.3632-17.1008 1.024-8.3968 8.7552-14.3872 17.1008-13.3632l71.4752 8.8064-29.3376-53.76a15.34464 15.34464 0 0 1 6.144-20.8384 15.36 15.36 0 0 1 20.8384 6.144l43.6224 80.0256c2.7648 5.0688 2.4576 11.2128-0.768 15.9744-2.816 4.1984-7.5776 6.7072-12.6464 6.7072zM895.7952 690.432c-0.8704 0-1.792-0.0512-2.6624-0.256l-95.7952-16.9984a15.38048 15.38048 0 0 1-12.4416-17.8176 15.40608 15.40608 0 0 1 17.8176-12.4416l64.3072 11.4176-42.9056-78.6432a15.34464 15.34464 0 0 1 6.144-20.8384 15.36 15.36 0 0 1 20.8384 6.144l58.1632 106.7008a15.3856 15.3856 0 1 1-13.4656 22.7328zM831.1808 540.0064a15.36 15.36 0 0 1-10.9056-26.1632l47.4624-47.872-91.2896-20.5824c-8.2944-1.8944-13.4656-10.0864-11.6224-18.3808s10.0352-13.4656 18.3808-11.6224l118.3744 26.6752c5.4272 1.2288 9.7792 5.3248 11.3664 10.7008 1.5872 5.376 0.1024 11.1616-3.84 15.104l-66.9696 67.5328a15.36 15.36 0 0 1-10.9568 4.608zM759.3472 408.1664c-0.512 0-1.024 0-1.5872-0.1024a15.35488 15.35488 0 0 1-13.7216-16.8448l7.8848-78.1824-91.2896 11.4176c-8.3968 1.024-16.0768-4.9152-17.152-13.312s4.9152-16.0768 13.312-17.152l110.4384-13.824c4.608-0.5632 9.2672 0.9728 12.6464 4.2496 3.328 3.2768 5.0176 7.8848 4.5568 12.544l-9.8304 97.3824a15.36 15.36 0 0 1-15.2576 13.824zM625.8176 285.952c-2.2016 0-4.4032-0.4608-6.5536-1.4848-7.68-3.6352-10.9568-12.8-7.3216-20.4288l22.4256-47.5648-124.2112 35.1744c-8.1408 2.304-16.64-2.4576-18.944-10.5984-2.304-8.1408 2.4576-16.64 10.5984-18.944l156.7232-44.3392a15.4112 15.4112 0 0 1 15.9232 4.864c3.8912 4.608 4.7616 11.0592 2.1504 16.4864l-36.864 78.08a15.55456 15.55456 0 0 1-13.9264 8.7552zM477.952 481.3824a15.3088 15.3088 0 0 1-15.2064-13.4656l-8.1408-65.7408-61.6448 53.3504a15.38048 15.38048 0 0 1-21.6576-1.536 15.38048 15.38048 0 0 1 1.536-21.6576l83.3536-72.192c4.3008-3.7376 10.24-4.7616 15.5648-2.7136 5.2736 2.048 9.0112 6.8096 9.728 12.4416l11.7248 94.3104a15.4112 15.4112 0 0 1-13.3632 17.152c-0.6656 0-1.28 0.0512-1.8944 0.0512zM473.4976 659.968c-1.024 0-2.048-0.1024-3.072-0.3072l-98.9696-19.968c-4.9664-1.024-9.1136-4.4032-11.1104-9.0112s-1.536-9.984 1.1776-14.2336l47.4112-74.5984c4.5568-7.168 14.0288-9.2672 21.1968-4.7104 7.168 4.5568 9.2672 14.0288 4.7104 21.1968l-35.4304 55.7568 77.056 15.5648c8.3456 1.6896 13.7216 9.7792 12.032 18.0736-1.4336 7.2192-7.8336 12.2368-15.0016 12.2368zM583.3728 552.8576c-1.9968 0-3.9936-0.4096-5.9392-1.1776a15.37536 15.37536 0 0 1-8.2432-20.1216l28.7744-68.7104-51.5072 14.2848c-8.192 2.2528-16.64-2.56-18.8928-10.7008-2.2528-8.192 2.5088-16.64 10.7008-18.8928l82.0224-22.6816a15.36 15.36 0 0 1 15.616 4.6592c3.8912 4.4032 4.9152 10.6496 2.6112 16.0768l-41.0112 97.8432a15.24736 15.24736 0 0 1-14.1312 9.4208zM650.0352 705.3312h-0.5632a15.3344 15.3344 0 0 1-14.7968-15.872l2.7136-78.4384-65.792 47.7696c-6.8608 5.0176-16.4864 3.4816-21.4528-3.3792-4.9664-6.8608-3.4816-16.4864 3.3792-21.4528l91.2384-66.304c4.7616-3.4816 11.0592-3.8912 16.2304-1.1264 5.1712 2.7648 8.3456 8.2432 8.1408 14.08l-3.7888 109.8752a15.28832 15.28832 0 0 1-15.3088 14.848zM481.0752 820.992c-3.4816 0-6.9632-1.1776-9.7792-3.4816-4.5568-3.7376-6.5536-9.728-5.1712-15.4112l21.3504-89.088c1.9968-8.2432 10.24-13.312 18.5344-11.3664a15.36 15.36 0 0 1 11.3664 18.5344l-13.9776 58.4192 60.7232-27.7504a15.37536 15.37536 0 0 1 12.8 27.9552l-89.3952 40.8576c-2.0992 0.8704-4.3008 1.3312-6.4512 1.3312zM627.968 885.6064c-4.608 0-8.96-2.048-11.9296-5.6832l-38.144-46.848a15.36 15.36 0 0 1 23.808-19.4048l22.528 27.6992 21.8112-47.7184a15.36 15.36 0 0 1 20.3776-7.5776 15.36 15.36 0 0 1 7.5776 20.3776l-32.1024 70.1952c-2.2016 4.8128-6.7584 8.192-12.032 8.8576-0.6144 0.0512-1.2288 0.1024-1.8944 0.1024zM735.7952 581.4272a15.34464 15.34464 0 0 1-12.4928-24.2176l25.9072-36.4544-45.8752-27.0336c-7.3216-4.3008-9.728-13.7216-5.4272-21.0432s13.7216-9.728 21.0432-5.4272l60.2624 35.5328c3.6864 2.2016 6.3488 5.8368 7.2192 10.0352 0.9216 4.1984 0 8.6016-2.5088 12.0832l-35.584 50.1248c-3.0208 4.1472-7.7312 6.4-12.544 6.4zM315.1872 570.112c-3.6352 0-7.2704-1.28-10.1888-3.84l-59.3408-52.5824a15.36 15.36 0 0 1-5.0688-13.2096c0.5632-4.9664 3.5328-9.3696 7.8848-11.776l60.6208-33.0752a15.36 15.36 0 0 1 20.8384 6.144c4.0448 7.4752 1.3312 16.7936-6.144 20.8384l-41.4208 22.5792 42.9568 38.0928c6.3488 5.632 6.912 15.3088 1.3312 21.6576-3.0208 3.4304-7.2704 5.1712-11.4688 5.1712zM354.6112 384.256a15.41632 15.41632 0 0 1-14.7968-19.6096l19.5072-68.0448c1.4336-4.9664 5.2736-8.9088 10.24-10.4448 4.9664-1.536 10.3936-0.4096 14.336 2.8672l41.6256 34.7136a15.40096 15.40096 0 0 1 1.9456 21.6576 15.40096 15.40096 0 0 1-21.6576 1.9456l-23.5008-19.6096-13.0048 45.4144a15.29856 15.29856 0 0 1-14.6944 11.1104zM607.6928 398.3872c-7.8336 0-14.4896-5.9392-15.2576-13.8752l-4.0448-42.0864-36.6592 15.872a15.3088 15.3088 0 0 1-20.1728-7.9872 15.3088 15.3088 0 0 1 7.9872-20.1728l56.0128-24.2176c4.5056-1.9456 9.6768-1.6384 13.9264 0.8704 4.2496 2.5088 7.0144 6.8608 7.4752 11.776l6.0928 63.0784a15.3088 15.3088 0 0 1-13.824 16.7424h-1.536z" fill="#2c2c2c" p-id="2296" data-spm-anchor-id="a313x.7781069.0.i16" class=""></path></svg>