<?xml version="1.0" standalone="no"?><!DOCTYPE svg PUBLIC "-//W3C//DTD SVG 1.1//EN" "http://www.w3.org/Graphics/SVG/1.1/DTD/svg11.dtd"><svg t="1617872645732" class="icon" viewBox="0 0 1024 1024" version="1.1" xmlns="http://www.w3.org/2000/svg" p-id="1807" xmlns:xlink="http://www.w3.org/1999/xlink" width="200" height="200"><defs><style type="text/css"></style></defs><path d="M507.5456 173.5168s-114.944-107.0592-261.4784-33.8944C198.2464 163.4816 177.6128 196.4032 168.448 232.96c-2.2528 9.0112-3.84 18.2784-4.9152 27.648-8.1408 69.1712 8.9088 145.9712-43.0592 197.9392 43.1616 13.056 247.0912-52.2752 288.9216-167.3216s98.1504-117.7088 98.1504-117.7088z" fill="#BFE5BD" p-id="1808"></path><path d="M409.344 291.2768c41.8304-115.0464 98.2016-117.76 98.2016-117.76s-0.8192-0.7168-2.2016-1.9456c-22.9376-6.1952-113.92-35.072-197.5296 54.8864-101.9904 109.6704-5.888 137.2672-187.392 232.1408 43.1616 13.1072 247.0912-52.2752 288.9216-167.3216z" fill="#A2DD9E" p-id="1809"></path><path d="M133.6832 475.392c-7.1168 0-13.1072-0.6656-17.664-2.048a15.4368 15.4368 0 0 1-10.4448-10.9568c-1.3312-5.2224 0.2048-10.8032 4.0448-14.592 30.9248-30.9248 34.304-72.9088 35.4304-120.6272a15.36512 15.36512 0 0 1 15.36-15.0016h0.3584c8.4992 0.2048 15.2064 7.2192 15.0016 15.7184-0.9216 41.472-3.84 81.5616-24.1664 115.7632 64.8192-9.5744 210.2784-66.4064 243.4048-157.5424C421.1712 214.2208 453.2736 182.7328 476.4672 168.96c-37.5296-25.1904-122.0096-66.2016-223.4368-15.5136-57.4464 28.7232-69.7344 71.2704-74.1888 109.056-0.9728 8.448-8.704 14.4384-17.0496 13.4656a15.33952 15.33952 0 0 1-13.4656-17.0496c5.0688-43.3152 20.0192-97.536 90.9824-132.9664 154.2656-77.056 277.6064 35.2256 278.8352 36.4032 4.5056 4.1984 6.0928 10.7008 3.9424 16.5376a15.3344 15.3344 0 0 1-13.6704 10.0352c-0.1024 0-47.5136 5.888-84.5312 107.6736-41.472 113.7152-220.6208 178.7904-290.2016 178.7904z" fill="#000F04" p-id="1810"></path><path d="M420.9152 273.2032c-25.344 26.3168-36.608 116.0192-71.8848 155.2384S203.8784 587.264 229.376 734.3616s127.5904 237.2608 241.2544 225.4848c25.4464-1.9456 41.1136-21.5552 70.0416-20.5824 28.928 0.9728 77.4656 41.6768 138.24 8.3456 60.7744-33.3312 181.8624-101.4784 148.5312-376.0128-11.776-86.272-89.2416-114.688-132.352-215.7056s-72.5504-143.8208-159.7952-139.2128c-74.5472 3.9424-114.3808 56.5248-114.3808 56.5248z" fill="#FDF29B" p-id="1811"></path><path d="M526.4384 940.4928c-191.232-82.1248-202.9056-288.512-146.0224-368.896s54.8864-115.712 62.7712-200.1408c5.4272-58.5728 44.8-119.7056 68.4032-151.7056-59.1872 12.032-90.624 53.504-90.624 53.504-25.344 26.3168-36.608 116.0192-71.8848 155.2384-35.2768 39.2192-145.1008 158.8224-119.6032 305.8688s127.5904 237.2608 241.2544 225.4848c20.8384-1.6384 35.1744-15.1552 55.7056-19.3536z" fill="#F7E06D" p-id="1812"></path><path d="M450.8672 976.2304c-52.2752 0-102.9632-20.2752-144.2816-58.2656-47.4112-43.5712-79.3088-106.1888-92.3136-180.992-26.4192-152.5248 85.248-276.48 121.9072-317.2352l1.3824-1.536c16.7936-18.688 28.5184-53.2992 38.8096-83.8144 10.24-30.2592 19.0464-56.4224 32.8704-71.2192 5.6832-7.1168 48.5888-57.8048 125.2352-61.8496 101.5296-5.2736 133.7344 52.5312 174.7456 148.5312 20.224 47.36 43.9808 77.2608 66.9696 106.1376 25.2928 31.8464 49.2032 61.9008 65.792 110.6432 0.1536 0.4608 0.256 0.8704 0.4096 1.3312 15.5648 64.512 17.5616 124.8768 5.9392 179.456a15.40096 15.40096 0 0 1-18.2272 11.8272 15.40096 15.40096 0 0 1-11.8272-18.2272c10.6496-49.8688 8.7552-105.3696-5.5808-165.12-14.848-43.3152-36.0448-69.9392-60.5696-100.7616-23.1424-29.0816-49.3056-62.0544-71.168-113.2032-43.8272-102.6048-69.5808-133.9392-144.8448-129.8944-66.048 3.4816-102.6048 50.0224-102.9632 50.5344-0.3584 0.4608-0.768 0.9216-1.1264 1.3312-9.3696 9.728-18.0736 35.4304-26.4704 60.3648-11.264 33.3312-24.0128 71.1168-45.1072 94.5152l-1.3824 1.5872c-34.2016 37.9904-138.3936 153.6-114.4832 291.4304 23.6544 136.5504 115.9168 224.1024 224.512 212.8384 9.1136-0.7168 16.7936-4.352 25.7024-8.6016 12.5952-5.9904 26.7776-12.6976 46.4384-12.0832 10.9056 0.3584 22.1184 4.4544 35.072 9.1648 27.392 9.984 58.4192 21.2992 95.2832 1.0752 29.5936-16.2304 84.48-53.2992 119.9616-119.552 3.9936-7.4752 13.312-10.2912 20.7872-6.2976 7.4752 3.9936 10.2912 13.312 6.2976 20.7872-39.2192 73.2672-99.6864 114.176-132.2496 131.9936-49.0496 26.9312-92.1088 11.2128-120.576 0.8704-10.0352-3.6352-19.5584-7.1168-25.6-7.3216-12.032-0.3584-21.4016 3.9936-32.2048 9.1648-10.1888 4.8128-21.76 10.2912-36.096 11.4176-7.1168 0.6144-14.08 0.9728-21.0432 0.9728z" fill="#000F04" p-id="1813"></path><path d="M456.3456 80.384s35.7888-2.4576 53.4528-22.528c12.2368 6.3488 44.1344 54.8864 42.1376 181.4016-5.376 3.9424-27.6992 10.9568-39.936 4.096 2.9184-25.0368-3.1744-109.056-55.6544-162.9696z" fill="#CF9782" p-id="1814"></path><path d="M525.2608 261.632c-7.2192 0-14.4896-1.3312-20.7872-4.864a15.24224 15.24224 0 0 1-7.7312-15.2064c2.048-17.2544-0.7168-98.3552-51.4048-150.4256a15.2576 15.2576 0 0 1-3.328-16.1792 15.37024 15.37024 0 0 1 13.2608-9.8304c8.2432-0.6144 32.0512-4.9152 42.9568-17.3568a15.32416 15.32416 0 0 1 18.6368-3.4816c18.3296 9.5232 52.48 62.6176 50.432 195.2256a15.2064 15.2064 0 0 1-6.3488 12.1856c-5.4784 3.9424-20.48 9.9328-35.6864 9.9328z m-40.704-171.3152c33.6896 47.0528 43.5712 106.1888 43.4688 140.3904 2.8672-0.256 5.9392-0.8704 8.6528-1.6384 0.1536-89.1904-17.152-133.5296-27.8528-150.2208-7.8336 5.3248-16.384 8.96-24.2688 11.4688zM701.2864 556.9024c-4.6592 0-9.2672-2.0992-12.288-6.144-0.3072-0.3584-0.768-0.9728-1.4336-1.7408-27.136-32.8192-44.7488-69.0688-52.3264-107.776-5.9392-30.2592-10.3936-43.6224-18.7392-63.8976-3.2256-7.8336 0.512-16.8448 8.3456-20.0704 7.8336-3.2256 16.8448 0.512 20.0704 8.3456 10.0864 24.4736 14.6944 40.1408 20.48 69.7344 6.5536 33.6384 22.016 65.28 45.8752 94.1056 1.0752 1.3312 1.8944 2.304 2.3552 2.9184 5.0688 6.8096 3.6864 16.4352-3.072 21.504-2.816 1.9968-6.0416 3.0208-9.2672 3.0208zM610.7648 340.5312a15.36 15.36 0 0 1-13.824-8.6528c-2.048-4.2496-3.328-6.656-3.3792-6.7584-3.9424-7.5264-1.024-16.7936 6.5024-20.736s16.7936-1.024 20.736 6.5024c0 0 1.4336 2.7136 3.7888 7.6288 3.6864 7.6288 0.512 16.8448-7.1168 20.5312-2.2016 1.024-4.4544 1.4848-6.7072 1.4848z" fill="#000F04" p-id="1815"></path></svg>