<?xml version="1.0" standalone="no"?><!DOCTYPE svg PUBLIC "-//W3C//DTD SVG 1.1//EN" "http://www.w3.org/Graphics/SVG/1.1/DTD/svg11.dtd"><svg t="1617872658078" class="icon" viewBox="0 0 1024 1024" version="1.1" xmlns="http://www.w3.org/2000/svg" p-id="2125" xmlns:xlink="http://www.w3.org/1999/xlink" width="200" height="200"><defs><style type="text/css"></style></defs><path d="M67.328 477.7984a359.0144 354.9184 0 1 0 718.0288 0 359.0144 354.9184 0 1 0-718.0288 0Z" fill="#BFE5BD" p-id="2126" data-spm-anchor-id="a313x.7781069.0.i4" class=""></path><path d="M67.2768 477.7984c0 195.9936 160.768 354.9184 359.0144 354.9184 173.6192 0 318.464-121.856 351.7952-283.7504-73.8816 94.5664-190.8224 138.8032-381.0304 138.8032-188.8256 0-313.1392-306.3296-314.9824-310.8864a351.14496 351.14496 0 0 0-14.7968 100.9152z" fill="#A2DD9E" p-id="2127"></path><path d="M426.3424 848.0768c-206.4384 0-374.3744-166.0928-374.3744-370.2784S219.904 107.52 426.3424 107.52c72.3456 0 142.592 20.48 203.1104 59.1872 7.168 4.5568 9.216 14.08 4.6592 21.1968-4.5568 7.168-14.08 9.216-21.1968 4.6592C557.312 157.0304 492.8 138.24 426.3424 138.24c-189.4912 0-343.6544 152.32-343.6544 339.5584s154.1632 339.5584 343.6544 339.5584c189.4912 0 343.6544-152.32 343.6544-339.5584 0-87.2448-33.4336-170.1888-94.1568-233.5232-5.888-6.144-5.6832-15.872 0.4608-21.7088a15.31392 15.31392 0 0 1 21.7088 0.4608c66.2528 69.0688 102.7072 159.5392 102.7072 254.7712 0 204.1856-167.936 370.2784-374.3744 370.2784z" fill="#000F04" p-id="2128"></path><path d="M308.1216 828.3648a15.38048 15.38048 0 0 1-7.168-28.9792c4.0448-2.1504 100.352-52.224 160.768-53.6064 43.52-0.9728 171.9296-22.4768 189.952-105.472 5.3248-24.4736 11.776-36.608 19.2512-50.6368 6.656-12.4928 14.1824-26.624 23.296-54.784 17.7664-54.6304-21.2992-124.2624-37.3248-133.12-30.2592-16.8448-45.6192-48.0256-49.664-101.1712-1.536-19.8144-13.7728-40.7552-32.7168-56.0128-15.5648-12.4928-33.792-19.3536-46.4896-17.5616-44.6976 6.4512-70.0416-8.3968-96.6656-56.7296-13.0048-23.6032-97.1264-14.4384-149.9136-0.768-8.192 2.1504-16.5888-2.816-18.7392-11.008-2.1504-8.192 2.816-16.5888 11.008-18.7392 25.7024-6.656 155.392-37.12 184.4736 15.7184 23.3984 42.3936 37.888 45.1072 65.4336 41.1648 21.3504-3.072 47.5648 5.9392 70.0928 24.0128 25.856 20.736 41.9328 49.0496 44.1344 77.6192 4.096 53.1968 19.456 68.608 33.9968 76.6464 30.1568 16.7424 73.6256 101.7856 51.6096 169.472-9.984 30.6688-18.5344 46.7456-25.3952 59.648-6.912 13.056-11.9296 22.4768-16.384 42.752-22.3744 102.7584-165.888 128.4096-219.2896 129.6384-53.248 1.2288-146.2784 49.6128-147.2 50.0736-2.2528 1.28-4.6592 1.8432-7.0656 1.8432z" fill="#000F04" p-id="2129"></path><path d="M698.112 716.8c-5.1712 0-10.24-2.6112-13.1072-7.3728-12.9024-21.0944-6.656-39.3216 1.2288-62.464 4.2496-12.4928 9.5232-28.0064 14.0288-48.7936 11.2128-52.0704-20.4288-67.8912-57.088-86.272-24.3712-12.1856-49.5104-24.7808-57.3952-49.8688-13.0048-41.4208-72.3456-99.8912-158.3616-94.0544C336.896 374.1696 297.984 343.1424 256.7168 310.272c-2.7648-2.2016-5.5296-4.4032-8.3456-6.6048-26.2656-20.6848-104.8064 14.9504-138.752 35.4816-7.2704 4.4032-16.6912 2.048-21.0944-5.1712-4.4032-7.2704-2.048-16.6912 5.1712-21.0944 12.4928-7.5776 123.5968-72.7552 173.6704-33.3312 2.8672 2.2528 5.6832 4.5056 8.448 6.7072 38.0416 30.3104 70.912 56.5248 149.4528 51.0976 92.8256-6.3488 170.7008 54.9888 189.7472 115.456 3.9936 12.6464 22.3744 21.8624 41.8816 31.5904 37.8368 18.944 89.6 44.8512 73.3696 120.2176-4.864 22.528-10.4448 39.0144-15.0016 52.224-7.7824 22.8352-9.0112 28.5184-4.096 36.5056 4.4032 7.2192 2.1504 16.6912-5.12 21.0944-2.4576 1.6384-5.2224 2.3552-7.936 2.3552z" fill="#000F04" p-id="2130"></path><path d="M621.2096 564.6848c-56.0128 0-120.1152-10.1888-142.4896-31.2832-27.0336-25.4976-100.7104-40.8576-158.8736-23.296-61.9008 18.688-107.008 27.3408-166.912-20.2752-40.2432-31.9488-67.8912-2.4576-70.9632 1.024-5.5296 6.3488-15.2064 7.1168-21.6064 1.5872a15.3088 15.3088 0 0 1-1.792-21.504c16.64-19.712 61.8496-46.1824 113.4592-5.1712 46.9504 37.3248 78.3872 33.1776 138.9568 14.8992 64.3584-19.4048 150.784-5.4784 188.8256 30.3616 13.6704 12.9024 75.9808 25.2416 138.9056 22.528 49.3056-2.1504 75.4688-12.544 83.5584-21.5552 11.1616-12.544 9.728-26.368 5.888-51.712-4.7104-31.488-10.6496-70.7072 21.7088-116.48a15.34976 15.34976 0 0 1 21.4016-3.6864c6.912 4.9152 8.6016 14.4896 3.6864 21.4016-25.1904 35.6864-20.736 65.4336-16.384 94.1568 3.8912 25.9584 7.936 52.8384-13.3632 76.6976-20.8896 23.4496-68.7104 30.2592-105.1648 31.8464-6.144 0.3584-12.4416 0.4608-18.8416 0.4608z" fill="#000F04" p-id="2131"></path><path d="M278.6816 683.0592c-89.7024 0-183.6032-46.7456-188.16-49.0496a15.39584 15.39584 0 0 1-6.8096-20.6336 15.33952 15.33952 0 0 1 20.6336-6.8096c1.1776 0.6144 120.32 59.8528 209.4592 42.6496 86.4256-16.6912 140.5952-18.1248 186.9824-5.0688 27.6992 7.7824 144.3328-43.6224 183.04-103.2192a15.36 15.36 0 0 1 25.7536 16.7424c-43.008 66.1504-171.6224 128.8704-217.1392 116.0192-30.3104-8.5504-72.192-13.7728-172.8512 5.632-13.2608 2.6112-27.0336 3.7376-40.9088 3.7376z" fill="#000F04" p-id="2132"></path><path d="M680.2432 548.0448s72.3456 88.0128 237.9776 48.64c26.0608-33.0752 44.1856-61.3888 44.1856-61.3888s-168.96 43.9808-247.9104-8.8576c-31.4368 6.5536-34.2528 21.6064-34.2528 21.6064z" fill="#A2DD9E" p-id="2133"></path><path d="M836.096 622.2848c-113.1008 0-165.0688-61.2864-167.68-64.4608-2.8672-3.4816-4.0448-8.0896-3.2256-12.544 0.768-4.1984 6.656-25.6512 46.2336-33.8432 4.0448-0.8192 8.2432 0 11.6736 2.2528 72.3456 48.4352 233.8304 7.168 235.4688 6.7584 6.0928-1.5872 12.5952 0.7168 16.2816 5.8368 3.7376 5.12 3.8912 11.9808 0.512 17.3056-0.768 1.1776-18.7904 29.3376-45.056 62.6176-2.1504 2.7136-5.12 4.608-8.4992 5.4272-31.7952 7.5264-60.3136 10.6496-85.7088 10.6496z m-134.9632-75.1104c22.6304 19.712 88.2176 62.6688 208.3328 35.7376 6.8096-8.7552 13.056-17.152 18.432-24.6272-54.7328 9.7792-154.9312 20.6336-216.064-15.4112-4.7104 1.3824-8.192 2.8672-10.7008 4.3008z m-20.8896 0.8704z" fill="#000F04" p-id="2134"></path><path d="M793.1904 610.9696s-39.0656-67.1744-142.4384 13.4656-89.6512 76.3392-89.6512 76.3392 43.1104 45.312 98.7648 30.5152c-48.7936 53.8112-30.6176 80.9472-25.088 98.4064 5.5296 17.4592-8.1408 43.6736 10.6496 59.6992 10.9568-13.056 53.3504-26.4704 77.2608-24.4224s93.2864-17.152 75.8784-93.9008c35.84 35.2768 64.3072 38.656 97.8944 32.1536-14.8992-51.5072-21.1456-75.5712-9.216-98.56 11.8784-22.9888-14.6944-120.1152-94.0544-93.696z" fill="#BFE5BD" p-id="2135"></path><path d="M896.4096 803.1744c-14.8992-51.5072-21.1456-75.5712-9.216-98.56s-14.6432-120.1152-94.0544-93.696c0 0-1.0752-1.792-3.2256-4.4032-3.6864 12.4416-4.9152 26.5728 2.2528 37.9904 16.6912 26.4704 9.1136 64.7168-5.2224 81.3568s-68.3008 56.8832-81.0496 76.4928c-9.9328 15.3088-42.5984 27.648-63.8976 83.6096 0.9728 1.1776 2.048 2.2528 3.328 3.328 10.9568-13.056 53.3504-26.4704 77.2608-24.4224 23.9616 2.048 93.2864-17.152 75.8784-93.9008 35.8912 35.3792 64.3584 38.7072 97.9456 32.2048z" fill="#A2DD9E" p-id="2136"></path><path d="M645.3248 904.7552c-3.6352 0-7.168-1.28-9.984-3.6864-17.7664-15.1552-16.2304-35.6352-15.104-50.5856 0.4608-6.1952 0.9216-12.544-0.2048-16.1792-0.512-1.6384-1.1776-3.328-1.8432-5.1712-5.632-15.1552-15.2064-41.0624 8.6528-80.0256-38.3488-3.7376-66.4576-27.7504-74.5984-35.4816-2.2016-1.4336-4.096-3.4304-5.376-5.888-6.3488-12.0832 3.7376-21.0432 16.5376-32.3584 15.0016-13.2608 41.1648-34.5088 77.8752-63.1296 43.5712-33.9968 82.688-47.9232 116.2752-41.4208 20.1728 3.8912 33.5872 14.4896 41.1648 22.4768 30.7712-7.4752 51.968 0.1536 64.6656 8.3968 21.8112 14.1824 36.7104 41.8304 39.8336 74.0352a15.39072 15.39072 0 0 1-13.824 16.7936c-8.3968 0.7168-15.9744-5.376-16.7936-13.824-1.7408-17.7152-9.472-40.4992-26.0096-51.2-12.3392-7.9872-28.672-8.6528-48.64-2.048-6.8608 2.304-14.4896-0.5632-18.1248-6.8608-0.256-0.4096-8.96-14.1824-28.7744-17.7152-24.064-4.352-55.5008 7.9872-90.9312 35.584-45.1072 35.1744-66.816 53.3504-77.2608 62.6176 14.3872 10.5472 41.728 25.5488 72.9088 17.2032 6.5536-1.7408 13.5168 1.024 17.0496 6.8608s2.816 13.2608-1.7408 18.3296c-37.376 41.216-30.0544 60.9792-24.1664 76.9024 0.8704 2.3552 1.6896 4.5056 2.304 6.5536 2.9184 9.2672 2.2016 18.6368 1.536 27.7504-0.4096 5.7856-0.6656 10.2912-0.4096 13.9264 21.2992-11.52 53.248-18.7904 73.4208-17.0496 9.1648 0.768 34.6624-3.4816 50.1248-21.1456 11.4688-13.1584 14.6432-31.3344 9.5232-54.016-1.4848-6.656 1.536-13.5168 7.5264-16.7936 5.9392-3.328 13.3632-2.304 18.2272 2.4576 25.1904 24.832 45.056 31.5392 67.2256 30.2592-0.6656-2.1504-1.28-4.1984-1.8944-6.1952-7.424-24.064-11.9296-38.6048-8.8064-57.0368a15.4368 15.4368 0 0 1 17.7152-12.5952 15.4112 15.4112 0 0 1 12.5952 17.7152c-1.8944 11.2128 1.1776 21.1456 7.8848 42.8544 2.0992 6.8608 4.5568 14.6944 7.168 23.808 1.1776 4.1472 0.6144 8.6016-1.6384 12.288s-5.9392 6.2464-10.1888 7.0656c-25.088 4.864-52.2752 5.9392-83.3024-13.4656-2.2528 20.1728-10.6496 34.4064-18.8416 43.8272-22.6304 26.0096-57.856 33.1776-75.8784 31.5904-21.248-1.792-57.5488 11.0592-64.2048 18.9952-2.6112 3.1232-6.4 5.0688-10.496 5.4272-0.3072 0.1024-0.7168 0.1536-1.1776 0.1536z" fill="#000F04" p-id="2137"></path></svg>